PathFileType	3	(X/Y/Z)	results
DataRate	CameraRate	NumFrames	NumMarkers	Units	OrigDataRate	OrigDataStartFrame	OrigNumFrames
30.0	30.0	4	85	mm	30.0	135	179
Frame#	Time	head			nose			neck			shoulder_r			elbow_r			wrist_r			shoulder_l			elbow_l			wrist_l			hip_r			knee_r			ankle_r			hip_l			knee_l			ankle_l			heel_r			heel_l			mtoe_r			ltoe_r			mtoe_l			ltoe_l			asis_l			asis_r			psi_r			psi_l			mhnd_r			lhnd_r			mhnd_l			lhnd_l			l_lat_knee			r_med_wrist			l_lat_ankle			r_med_ankle			r_lat_knee			xiphoid			l_med_ankle			r_med_knee			l_med_elbow			navel			r_lat_elbow			r_lat_wrist			l_med_wrist			l_lat_elbow			l_med_knee			r_med_elbow			r_lat_ankle			l_lat_wrist			chin			T10			r_eye			l_eye			l_ear			r_ear			spinal_cord_8			spinal_cord_12			spinal_cord_27			spinal_cord_33			up_arm_r_0			up_arm_r_5			up_arm_l_0			up_arm_l_5			front_torso_11			front_torso_7			front_torso_4			front_torso_1			front_torso_10			thigh_r_2			thigh_r_3			thigh_l_1			thigh_l_5			shank_l_0			shank_l_4			shank_r_1			shank_r_2			foot_r_1			foot_r_3			foot_r_5			foot_r_6			foot_r_7			foot_l_1			foot_l_7			foot_l_0			foot_l_4			foot_l_5			foot_l_6			
		X1	Y1	Z1	X2	Y2	Z2	X3	Y3	Z3	X4	Y4	Z4	X5	Y5	Z5	X6	Y6	Z6	X7	Y7	Z7	X8	Y8	Z8	X9	Y9	Z9	X10	Y10	Z10	X11	Y11	Z11	X12	Y12	Z12	X13	Y13	Z13	X14	Y14	Z14	X15	Y15	Z15	X16	Y16	Z16	X17	Y17	Z17	X18	Y18	Z18	X19	Y19	Z19	X20	Y20	Z20	X21	Y21	Z21	X22	Y22	Z22	X23	Y23	Z23	X24	Y24	Z24	X25	Y25	Z25	X26	Y26	Z26	X27	Y27	Z27	X28	Y28	Z28	X29	Y29	Z29	X30	Y30	Z30	X31	Y31	Z31	X32	Y32	Z32	X33	Y33	Z33	X34	Y34	Z34	X35	Y35	Z35	X36	Y36	Z36	X37	Y37	Z37	X38	Y38	Z38	X39	Y39	Z39	X40	Y40	Z40	X41	Y41	Z41	X42	Y42	Z42	X43	Y43	Z43	X44	Y44	Z44	X45	Y45	Z45	X46	Y46	Z46	X47	Y47	Z47	X48	Y48	Z48	X49	Y49	Z49	X50	Y50	Z50	X51	Y51	Z51	X52	Y52	Z52	X53	Y53	Z53	X54	Y54	Z54	X55	Y55	Z55	X56	Y56	Z56	X57	Y57	Z57	X58	Y58	Z58	X59	Y59	Z59	X60	Y60	Z60	X61	Y61	Z61	X62	Y62	Z62	X63	Y63	Z63	X64	Y64	Z64	X65	Y65	Z65	X66	Y66	Z66	X67	Y67	Z67	X68	Y68	Z68	X69	Y69	Z69	X70	Y70	Z70	X71	Y71	Z71	X72	Y72	Z72	X73	Y73	Z73	X74	Y74	Z74	X75	Y75	Z75	X76	Y76	Z76	X77	Y77	Z77	X78	Y78	Z78	X79	Y79	Z79	X80	Y80	Z80	X81	Y81	Z81	X82	Y82	Z82	X83	Y83	Z83	X84	Y84	Z84	X85	Y85	Z85	
135	4.5	3109.7792347844065	1702.339107433307	-574.1626503287065	3215.353721553626	1516.8740221887504	-511.9710312849273	3125.9401226700206	1366.7979549592721	-567.7548939352436	3019.9978830598875	1388.7310839319334	-419.0845142720364	2937.5754217659182	1225.967075773329	-246.63482497029113	3122.216856388952	1128.6720489276418	-254.8579108420576	3163.3470455536126	1384.7751672483969	-705.5063754631793	3259.5043064075926	1162.113129013207	-696.9976515031494	3225.813289865693	1152.3347526694208	-491.29413198904183	3115.3525950936205	921.4738892311613	-465.66269089848714	3302.8276866571314	592.9457271865784	-460.8067044856639	3320.7604195329636	231.98428935562376	-360.5469985416672	3106.7751989853027	887.2291544251691	-624.2174044492918	2912.607917424384	552.1371464186494	-626.282978591598	2587.6553914558262	374.4129590386445	-548.5192409735984	3306.319091166903	174.4552531522763	-342.6120869857816	2528.376390572617	372.85594224161775	-527.299463950652	3496.0005369559076	178.4272386648886	-404.0580117670364	3461.8994719048314	193.71959564034523	-334.45421932753624	2565.4493385559495	174.5778649347146	-585.467998733338	2509.1198177115934	233.68925392400595	-625.1982144727488	3136.1347272525663	933.3209725649165	-672.7345266747573	3146.0808430236075	980.8111022102056	-439.86305976290436	3024.985425311055	970.8821637211315	-513.1137307397037	3025.655203904208	953.8917186688401	-592.4875628127756	3169.567707469947	1074.3701862734595	-241.0415296713413	3205.5058901077823	1106.0289608481391	-265.0250922896351	3223.5718593216866	1120.3718796236726	-422.0989909997501	3205.736646240217	1168.3699441864812	-406.8072188241486	2902.8988225101684	554.9618664630916	-673.615424678812	3107.8670884296457	1117.1894531272467	-236.0751416532898	2553.478473747787	388.77896325126864	-587.2863067371328	3316.5647723014285	213.46147745670675	-392.30541396307996	3317.178560965407	593.2342875247493	-421.4073928532943	3198.89029825299	1200.4304118927598	-529.4969072760391	2594.077286100575	348.0135618309496	-527.7357310666877	3293.577635930926	583.157196498121	-499.1049933586162	3231.550560521509	1158.143139614102	-714.7869897852186	3196.673856564464	991.0580408563522	-516.3803529024683	2956.664640646267	1250.1810986925593	-223.77475803678448	3122.453470427188	1145.3656653760318	-278.54416556917755	3245.558413327875	1132.1502571466667	-498.04348369231553	3287.0703792229037	1185.3668429936085	-689.0314951542002	2935.257547647312	541.1645885356724	-585.5108712106809	2923.1441207538187	1211.5598962144704	-275.5500963269755	3346.0743136349056	226.4689946124217	-319.07244480759556	3218.0700107126368	1178.2945891274585	-498.1492075323194	3191.446599230541	1438.7864926362079	-514.5351731098043	3022.5201379810737	1222.0044093697813	-588.2695772864989	3203.198541608803	1552.7356776674646	-482.98402819438854	3232.1870416639554	1546.0264527401823	-548.7246875744764	3156.605730922924	1539.2314598749458	-641.480974657113	3082.036301918607	1552.721730623829	-479.29216111590057	3086.1299611037366	1425.8104601119944	-585.4445687571244	3030.7869920324874	1317.0712948805683	-595.5308233833416	3022.027898002133	1077.766764821438	-564.9085749413952	3033.627146474171	1212.1077595528852	-584.0040660934689	3020.516008490583	1292.732145454276	-328.93538733634796	2941.4889990390934	1315.144223784621	-307.8736479773608	3207.2345493766807	1350.6012697801925	-699.739790914812	3210.0790995002476	1213.2706471581962	-728.6839193255167	3148.7955095400785	1023.1875904749132	-485.76861622756456	3219.7897473256908	1116.0879965529055	-514.974825124264	3226.5092153760866	1238.5342699058365	-588.7020326616207	3189.7012132118493	1046.4981277976808	-592.9562613639191	3194.3776673611706	1287.645895445947	-457.39008825871866	3211.680202569253	740.7205533324768	-479.25497825215	3254.231775887765	726.3189519153245	-390.9694298968928	2975.389601940916	646.2062902829097	-579.2547947442902	3053.3383777894724	797.0130117315846	-724.9075174923321	2643.215836684048	433.03323464916434	-627.6464324832101	2807.226347362767	463.03697632856944	-558.5279007055481	3336.0463721273163	452.8725300092211	-369.5990537089694	3298.1351650940787	394.15592676969067	-443.4199410525113	3487.374773224063	179.31923600854435	-378.6453933532593	3478.7546924855205	187.98341172188532	-355.6222431580109	3422.1545828477115	179.00496718437046	-394.2843327644492	3418.6579989495694	196.09837402678514	-363.6720374062545	3417.869065068533	194.79473204452685	-331.9088387119983	2528.4231735537783	202.44047676481526	-610.8610012129585	2527.9900232618493	305.18419400214736	-606.7662463605145	2520.178387499374	211.95521788637967	-620.0792764215038	2538.43273915066	191.3036655456779	-599.3348137977042	2538.9243695068226	247.5216202888243	-594.1314538389256	2558.473473596259	271.06479876602435	-566.7322493319481	
136	4.533333333333333	3236.747754055404	1691.4272316670174	-573.6039599623266	3341.9388966182223	1506.2782040311972	-509.8408932819939	3277.7041812234343	1351.1654557903662	-577.9775876327761	3182.0828108430824	1365.4927047841218	-424.22354112681285	3089.8636833555474	1200.7387997536068	-258.7658029562681	3279.639913707912	1114.8410983400408	-243.5025118654935	3304.625991169347	1373.5494615585237	-706.4803020188333	3378.2074728714333	1142.333668467588	-711.1731737699389	3334.3739615421714	1146.9609160004434	-507.2078555296673	3262.2391650883583	922.9666121844772	-468.53119928811225	3422.9084304465505	582.1246972075394	-449.7870331513169	3465.6598482433765	217.57150924145867	-372.7153745115067	3264.805642545228	889.818487848235	-627.5295823665633	3086.258686308824	543.8808434467526	-650.8314396329607	2741.0475849179843	433.8533990648877	-541.5131577178591	3454.1491633288992	159.39003227483516	-362.19796996023445	2686.4940766034433	444.0351257748919	-513.2474507033182	3644.21002294101	160.3420631187225	-422.58333655281984	3610.56697381363	151.2826674895421	-351.67847538173925	2663.4116418552294	249.38425719935293	-588.416715834384	2623.0678679467787	324.91066993289405	-618.6458765227776	3282.1484874953735	942.5076505450003	-675.105065673552	3276.527586445304	987.8061117780424	-441.6531164085278	3162.938906473354	948.4490087740908	-516.9988198986074	3168.9852086992832	933.2628460060355	-596.5107795913345	3328.1938465359667	1063.768877949049	-223.11056037169274	3364.738650696056	1097.1960124024415	-243.51022276796692	3324.7154346805182	1118.9153990104285	-436.9598759403888	3312.931267663385	1169.5461250234516	-424.57398417540327	3070.495612034812	554.9789801609551	-694.8601703016336	3263.9100240836106	1102.7934298903838	-226.24034159249064	2706.764900621175	457.4799354238909	-575.3334697515382	3474.225324072041	202.28576492191337	-405.30791370131544	3433.349283463999	580.0181188741615	-409.0236673346621	3342.1735077030526	1181.543897965833	-538.7883785155633	2743.8427769537357	405.4436443185887	-522.6665154559876	3420.941717275612	574.1017615863002	-489.6866549315143	3350.0321955594954	1142.1870240766984	-729.0551626197471	3328.610156458688	972.8392420516795	-522.2914555122449	3104.7038076155777	1226.4310082406753	-234.41460219320226	3281.638404456606	1131.1469605798043	-267.37501426202266	3351.461937171605	1124.009814205544	-512.1155559837922	3407.928632878894	1162.241792400043	-701.9860915008957	3114.2189851484995	532.3108061435169	-613.7782065686131	3079.7696655572577	1185.022881756761	-288.8164754209225	3477.7521845841165	210.79134336227807	-325.8202247556702	3330.5570579832215	1173.3698378429585	-515.5062671856342	3320.5074151305007	1427.791229336482	-517.3424929247929	3165.909572218259	1212.117093827345	-593.7647578421827	3326.436091596895	1540.644068154213	-480.63980595831623	3360.9352057489823	1537.2800528130465	-543.9302132394109	3293.4986482556974	1532.338380048968	-642.87628864655	3205.430804529755	1537.504022594557	-487.10347515405306	3240.828360558671	1412.0536813422198	-595.6707265030984	3179.283565722818	1306.4544848054923	-602.7298151584293	3157.945046470607	1068.4904481597127	-568.1048704788583	3176.5477185058976	1201.6763022548496	-589.6025930323315	3177.7491530428574	1271.1384050249249	-332.4552717899227	3095.6267477631236	1289.0115270577544	-321.157997666135	3344.8962859351263	1334.917806850541	-702.8580967042484	3334.1613706800067	1199.8808067666243	-739.6728240210123	3283.3514331007054	1008.0471401612714	-491.0860975517444	3358.685277450816	1096.3828791594215	-523.4168723246678	3370.432571844957	1217.170485529862	-599.2212090203636	3322.88745423808	1027.459767581116	-599.5568398849622	3344.2742347021126	1269.9181499808585	-467.9937721910783	3347.486847784166	736.364008035839	-475.4469346740503	3375.420373696809	716.1979218618931	-382.5737541418839	3150.3651304418804	637.9174343059501	-598.8057101460054	3202.9835986996327	809.778214488502	-731.9543622892289	2798.9987269617613	484.3412511042643	-624.4411635728314	2972.146274871346	474.83190421797684	-574.3757809451835	3448.339803874796	438.23884114436123	-362.0777242806112	3444.2177165254734	383.6720013598295	-447.75088760908375	3635.0383082224084	152.23818595602216	-398.6833897345654	3627.057576322457	152.1257053906471	-373.86939279519436	3570.947422761345	167.54448220337858	-411.1903525766516	3569.01344597869	171.30038367923893	-376.2092688106762	3567.088063624527	157.54935332268738	-347.6011448368672	2633.90660460079	288.4257366576526	-608.3486566835378	2662.131036026492	386.6440551869921	-596.9570174605418	2628.012441243955	300.62287687801745	-616.0928159201155	2641.1992165697584	273.9841237979839	-598.5849180255207	2657.53926452834	327.254783718988	-589.4736768882134	2684.6136464122355	342.0112003350191	-562.3371490081919	
137	4.566666666666666	3374.2586229095186	1677.1576402999358	-575.0430435401082	3475.1121761101567	1489.315625132676	-512.1542072863651	3431.0782980833274	1330.254893072198	-587.5774658778261	3350.1645649901648	1324.5876685190638	-419.7121077503653	3251.8930772510016	1153.5109695498045	-264.47049739672497	3448.1971145421257	1090.1178307160508	-231.7224339147584	3441.780909942355	1328.0227722852503	-705.1735028947065	3532.2832593627645	1105.7433008189355	-741.2035151547539	3484.3376282216323	1130.5640512241876	-539.635199232244	3398.0544597727835	898.795009412456	-467.14762359668345	3556.3337152175377	556.8835570400572	-451.0887845111913	3616.120143405623	189.73162891255163	-403.21608015757585	3400.681599931354	886.958961722379	-629.1318107409072	3288.721317925242	510.3794642461097	-675.61600386844	2938.0662824138153	473.85310966409963	-538.014763710585	3604.7805018821887	133.90362615146873	-400.1425179417592	2887.856142083841	496.1386100026725	-508.52904038486867	3796.9969732311533	123.37187168490591	-452.2226437840749	3757.7438315931095	100.99149426775757	-387.41727116996833	2822.2049999578066	308.68164665171514	-576.5142761368089	2804.6574473238647	389.64681422937133	-613.6947320939277	3415.5260918963586	946.1041401223171	-669.4038566149991	3409.9524485624943	960.0675005873375	-432.0068962325073	3297.433264228408	926.365172891008	-511.5803281912312	3303.4503580072537	922.0172561423457	-592.4148458603946	3500.306697993909	1044.8189058568723	-206.93763023292726	3534.4128355954444	1082.4974812804082	-223.85326166378053	3473.406859314672	1109.6619880203189	-467.1214843524069	3461.128304255168	1161.1994198101474	-460.13023740590586	3273.3014371573945	526.134436113183	-718.5032143747273	3432.463349793476	1076.1295240450288	-215.99557191017178	2905.865139149372	498.1342874638006	-573.3819794067005	3631.7310288138824	178.8044874251417	-434.93662243064404	3559.0146059009676	550.6645864304485	-409.4368968095894	3488.3400768812694	1158.1891434444815	-547.8530710965679	2937.54229853899	448.0968726898107	-515.5099889809474	3563.6393139859965	553.3254404113197	-491.08859906708994	3502.929308662769	1105.1598055022757	-757.0666293800346	3463.6912620563194	951.3645765893557	-522.757636477589	3261.4846210483647	1180.4380645428455	-238.8534388923164	3450.4622590613976	1106.8108621680817	-255.3017320505252	3501.6329937792684	1107.354056700667	-541.8721598723155	3561.002770661613	1126.9760272925446	-731.7990359788793	3317.313968409437	507.91635244087206	-636.4613785065371	3246.890418111311	1136.8923498481374	-295.3041976306758	3620.0907689915957	178.58047524797684	-355.7688861145749	3480.5589444697557	1155.9771989933813	-550.6241487379386	3452.6037704563205	1411.3187074720026	-521.4084010948382	3310.1613042768467	1198.1220734190051	-588.8870038653092	3459.5355270632094	1523.44904809142	-482.7207140699018	3495.3224648659134	1520.555517707746	-545.3154717970891	3429.9473097397313	1518.3168388198367	-645.7321669418307	3338.6615501949404	1522.3765085678067	-491.7898804488652	3396.55359850604	1392.775910301264	-604.2932323089104	3328.3760642929087	1291.105875016874	-602.3411649120922	3295.7924770106233	1056.1434884806004	-557.4848533418062	3320.469547988256	1187.163626200978	-585.2598221552533	3342.202496265575	1230.5835688039208	-327.8275909456489	3258.137573316472	1241.6952604409714	-326.9413735447561	3485.049272328752	1292.7708265071929	-708.690730865841	3481.9294308185986	1162.116052332694	-759.926953589303	3423.4930781132566	990.3041481859996	-489.14903242621057	3500.950386635553	1072.66949909884	-530.8621504086868	3513.3858694763953	1190.0820889454426	-611.6927433310826	3454.638982437854	1003.8315407152785	-601.1882724637876	3501.853320462306	1248.3930491200083	-480.7192837270257	3486.066697745447	713.5439502350331	-475.5985239435735	3494.5541492135953	683.5861183282061	-381.561977650838	3333.0272370393486	617.4821667788519	-615.6790567413152	3358.4779279951936	802.1078223514453	-739.3682808821628	2997.9058327414514	502.79871275027574	-629.47947002605	3170.208119671701	471.65703902803943	-585.6712329085614	3577.9699865366956	406.1402148524018	-374.59608066594507	3594.1645297539344	361.35056245638737	-464.40725107988936	3785.25423539229	110.69713211910367	-431.6688188638868	3775.6668153652668	105.239808331402	-408.05233792482176	3724.6913254508568	137.766128246061	-441.55577044832137	3720.900697487392	132.4734390615296	-406.92714263298706	3715.2733992968356	112.13795734584632	-383.13587556200025	2805.1187242873084	352.3880065508608	-600.8017193075298	2856.262223062282	441.0958103770911	-591.3945868218459	2803.1025821890457	365.118102016159	-609.597356521386	2807.7632009125246	337.2774636470353	-589.767626665591	2836.2734394415834	385.3307177721823	-581.6542945652532	2864.042099062598	394.7068622553812	-552.8766193880175	
138	4.6	3520.4699533288594	1664.719993529753	-576.7502851874639	3620.880714162064	1474.0532712977997	-522.2072038401355	3572.9374669068798	1315.8224395379316	-595.1470725037533	3513.9893858517435	1285.1236869942647	-405.7352741567233	3415.305646758368	1106.3472232676997	-259.7045394675714	3618.472461548031	1064.4777744636237	-235.27923711785758	3578.1633298538736	1271.2986635385716	-711.9366007744118	3686.0538262614714	1066.4797266525848	-784.7778277494805	3671.5693482620377	1110.4503311013545	-581.3044264864851	3485.5243801628567	840.9999300383536	-469.3728624694605	3708.357409609547	535.1971430200575	-461.4577570128864	3732.4484885238376	161.68515373659397	-437.47516074771505	3452.299961535839	867.7582913884908	-626.1083047914242	3512.9004177282177	471.4708352218281	-680.3467362105254	3159.5121363050953	486.6461202774324	-545.7597268899973	3716.708191601516	105.09597734204486	-437.31832517572445	3111.1901229579926	517.924659485196	-522.8498708537653	3912.039086349556	89.80573455469651	-474.50003102923375	3868.6093496689377	76.558708484687	-409.84865042838214	3029.037412129262	328.91627538775975	-562.8366273592486	3026.397384765367	402.2201096718061	-616.3645584258711	3503.3773520949535	897.1558142174903	-669.3198145282367	3548.3338383411187	857.4661868038664	-439.13074972605796	3448.531489510377	946.9594473752237	-485.59355516463177	3435.742019123654	957.3787404376217	-565.0743504784054	3676.145708725287	1024.30833496254	-214.25780841610785	3705.1959222685664	1066.4776227054665	-229.970176763705	3676.1888741731377	1097.4598020125318	-506.3076069865935	3659.100868108833	1147.93648623303	-502.32618480880234	3497.400258613726	490.0324212999136	-724.5787176382006	3604.928090879588	1047.9914799736553	-219.93940718446032	3129.1149290763287	504.04419503619044	-586.3878693081967	3744.0312091671885	151.10606805337744	-470.98961277991185	3707.791743847625	526.9459865204651	-420.37462132737204	3642.3587968977367	1148.0498878062695	-556.4610172055312	3157.267605171996	466.7247164930911	-518.0428919505181	3714.1351314933677	534.3435989400554	-501.61811530684173	3653.9221183395566	1061.8497748483937	-792.5076514032402	3630.3459062279803	941.6633476971053	-520.767419946003	3422.909831900219	1132.7986623332467	-232.95014574823293	3618.092303329894	1082.4876311951298	-257.97884106962016	3690.9176535143997	1089.0314984291767	-584.4211875106969	3712.97110099707	1091.5860606409178	-781.7421160056191	3537.2137534563717	489.1900355898183	-638.4738958959981	3412.146744153428	1090.5008399837095	-291.1820816289772	3739.249470597616	147.417049464316	-391.1986206711636	3662.8314426165953	1133.8280576942693	-593.874010646374	3595.374706768808	1396.7443628060576	-529.175980444308	3458.8669135742857	1179.0043449537484	-576.4271855599292	3608.9396869811208	1508.6640575870777	-491.6530155243285	3639.025814791398	1504.6464218393805	-557.1195309859268	3565.0972594365794	1504.2268331541811	-651.442528728855	3487.7561202346656	1511.1489966927013	-490.14085414452103	3533.8321749057063	1376.1350144884213	-609.7559315961715	3471.0723686957863	1271.984940894637	-595.5168407496274	3454.8930584631576	1038.0345481542292	-538.1884394837681	3470.027087806498	1168.6337565169413	-573.7059160799108	3505.4639517899436	1188.2073765128907	-316.9801308308199	3421.1036105841636	1196.5148650318413	-319.32209771982207	3623.437586232619	1243.1690958824643	-728.8537781445483	3625.1522590102218	1114.9906495733994	-786.0630408881457	3592.8680258449613	980.3572075415426	-483.89037848294714	3660.8107003223076	1063.9098131915068	-537.9868197734838	3657.899855599861	1178.1664794572443	-624.0733078944374	3609.359774662494	990.3256111508314	-599.3654933928605	3659.9369373704376	1241.5095280681476	-494.9581524151738	3607.22338723532	676.2047533726723	-482.3122635873709	3618.568015791359	643.8972092814168	-389.3611874162757	3503.378909011013	594.4700177362827	-617.1476669482407	3460.0854399169416	776.8145432477131	-739.252310939027	3221.755547636522	490.7496985310513	-640.0641839116756	3391.5227897771065	460.7850832392114	-586.6015905463094	3720.2279721374516	378.7980370167741	-394.8152287092408	3723.8011007495406	337.9476185234185	-487.8361864753944	3898.9943441023024	80.09789502945483	-453.13198981536004	3887.862390303336	78.0066198355901	-429.65550476489284	3839.1173615346743	104.57650483161454	-470.84901677469713	3833.0268115055333	104.33550944256685	-436.14497659060044	3825.8989260300773	87.60805758548081	-410.05650608359304	3020.55979392984	368.4699455275966	-596.8322708422993	3081.6543381607303	451.1759750119868	-597.4610954353745	3021.1921151231595	379.32447814394567	-608.0243521993508	3019.9934404096643	355.67720373656056	-582.9363014605465	3053.559908529132	400.9956286948118	-580.2330315779202	3079.08554329367	412.8686498589326	-550.3225239020579	
